<svg width="1200" height="1400" viewBox="0 0 1200 1400" fill="none" xmlns="http://www.w3.org/2000/svg">
  <defs>
    <linearGradient id="bg" x1="0" y1="0" x2="1" y2="1">
      <stop offset="0%" stop-color="#0F3D4C" />
      <stop offset="45%" stop-color="#0B1F2C" />
      <stop offset="100%" stop-color="#050507" />
    </linearGradient>
    <radialGradient id="glow" cx="0" cy="0" r="1" gradientUnits="userSpaceOnUse" gradientTransform="translate(840 340) rotate(125) scale(520 420)">
      <stop stop-color="#5EEAD4" stop-opacity="0.65" />
      <stop offset="1" stop-color="#0B1F2C" stop-opacity="0" />
    </radialGradient>
    <linearGradient id="wave" x1="110" y1="450" x2="1130" y2="980">
      <stop offset="0" stop-color="#FDE68A" stop-opacity="0.25" />
      <stop offset="1" stop-color="#38BDF8" stop-opacity="0.05" />
    </linearGradient>
  </defs>
  <rect width="1200" height="1400" fill="url(#bg)" />
  <rect width="1200" height="1400" fill="url(#glow)" />
  <path d="M140 940C240 820 330 760 460 720C590 680 740 700 860 640C980 580 1050 480 1180 440L1200 460V1400H0V1030C40 1000 90 980 140 940Z" fill="url(#wave)" />
  <path d="M260 1140C360 1030 520 960 700 980C860 990 1010 1080 1180 1120L1200 1140V1400H0V1250C80 1230 170 1210 260 1140Z" fill="rgba(255,255,255,0.08)" />
  <circle cx="260" cy="360" r="140" fill="rgba(255,255,255,0.08)" />
  <circle cx="980" cy="260" r="180" fill="rgba(255,255,255,0.05)" />
  <circle cx="880" cy="780" r="240" fill="rgba(45,212,191,0.1)" />
  <rect x="160" y="520" width="340" height="420" rx="180" fill="rgba(255,255,255,0.1)" />
</svg>
